<svg width="305" height="50" viewBox="0 0 305 50" fill="none" xmlns="http://www.w3.org/2000/svg">
<path d="M0 28.5714C0 34.2546 2.76562 39.7051 7.68845 43.7237C12.6113 47.7424 19.2881 50 26.25 50C26.25 38.0952 14.4958 28.5714 0 28.5714ZM26.25 10.7143C28.1839 10.7143 30.0385 11.3414 31.406 12.4577C32.7734 13.574 33.5417 15.088 33.5417 16.6667C33.5417 18.2453 32.7734 19.7593 31.406 20.8756C30.0385 21.9919 28.1839 22.619 26.25 22.619C24.3161 22.619 22.4615 21.9919 21.094 20.8756C19.7266 19.7593 18.9583 18.2453 18.9583 16.6667C18.9583 15.088 19.7266 13.574 21.094 12.4577C22.4615 11.3414 24.3161 10.7143 26.25 10.7143ZM7.58333 22.0238C7.58333 23.6025 8.35156 25.1165 9.71901 26.2328C11.0865 27.3491 12.9411 27.9762 14.875 27.9762C16.4208 27.9762 17.85 27.5714 18.9583 26.9286V27.381C18.9583 28.9596 19.7266 30.4736 21.094 31.5899C22.4615 32.7062 24.3161 33.3333 26.25 33.3333C28.1839 33.3333 30.0385 32.7062 31.406 31.5899C32.7734 30.4736 33.5417 28.9596 33.5417 27.381V26.9286C34.65 27.5714 36.0792 27.9762 37.625 27.9762C39.5589 27.9762 41.4135 27.3491 42.781 26.2328C44.1484 25.1165 44.9167 23.6025 44.9167 22.0238C44.9167 19.6429 43.1958 17.619 40.7458 16.6667C43.1958 15.7143 44.9167 13.6667 44.9167 11.3095C44.9167 9.73085 44.1484 8.21684 42.781 7.10055C41.4135 5.98427 39.5589 5.35714 37.625 5.35714C36.0792 5.35714 34.65 5.7381 33.5417 6.40476V5.95238C33.5417 4.37371 32.7734 2.8597 31.406 1.74341C30.0385 0.627124 28.1839 0 26.25 0C24.3161 0 22.4615 0.627124 21.094 1.74341C19.7266 2.8597 18.9583 4.37371 18.9583 5.95238V6.40476C17.85 5.7381 16.4208 5.35714 14.875 5.35714C12.9411 5.35714 11.0865 5.98427 9.71901 7.10055C8.35156 8.21684 7.58333 9.73085 7.58333 11.3095C7.58333 13.6667 9.30417 15.7143 11.7542 16.6667C9.30417 17.619 7.58333 19.6429 7.58333 22.0238ZM26.25 50C33.2119 50 39.8887 47.7424 44.8116 43.7237C49.7344 39.7051 52.5 34.2546 52.5 28.5714C37.9167 28.5714 26.25 38.0952 26.25 50Z" fill="white"/>
<path d="M100.739 36.6477L100.341 46.875H96.7045V40H94.6591V36.6477H100.739ZM76.0227 40V10.9091H79.375V36.7614H94.375V10.9091H97.7273V40H76.0227ZM105.607 40V18.1818H114.528C116.876 18.1818 118.742 18.7121 120.124 19.7727C121.507 20.8333 122.198 22.2348 122.198 23.9773C122.198 25.303 121.805 26.3305 121.019 27.0597C120.233 27.7794 119.225 28.267 117.994 28.5227C118.799 28.6364 119.58 28.9205 120.337 29.375C121.104 29.8295 121.739 30.4545 122.241 31.25C122.743 32.036 122.994 33.0019 122.994 34.1477C122.994 35.2652 122.71 36.2642 122.141 37.1449C121.573 38.0256 120.759 38.7216 119.698 39.233C118.638 39.7443 117.369 40 115.891 40H105.607ZM108.789 36.9318H115.891C117.047 36.9318 117.951 36.6572 118.604 36.108C119.258 35.5587 119.585 34.8106 119.585 33.8636C119.585 32.7367 119.258 31.8513 118.604 31.2074C117.951 30.554 117.047 30.2273 115.891 30.2273H108.789V36.9318ZM108.789 27.3295H114.528C115.427 27.3295 116.199 27.2064 116.843 26.9602C117.487 26.7045 117.979 26.3447 118.32 25.8807C118.671 25.4072 118.846 24.8485 118.846 24.2045C118.846 23.286 118.462 22.5663 117.695 22.0455C116.928 21.5152 115.872 21.25 114.528 21.25H108.789V27.3295ZM137.216 40.4545C135.114 40.4545 133.3 39.9905 131.776 39.0625C130.26 38.125 129.091 36.8182 128.267 35.142C127.453 33.4564 127.045 31.4962 127.045 29.2614C127.045 27.0265 127.453 25.0568 128.267 23.3523C129.091 21.6383 130.237 20.303 131.705 19.3466C133.182 18.3807 134.905 17.8977 136.875 17.8977C138.011 17.8977 139.134 18.0871 140.241 18.4659C141.349 18.8447 142.358 19.4602 143.267 20.3125C144.176 21.1553 144.901 22.2727 145.44 23.6648C145.98 25.0568 146.25 26.7708 146.25 28.8068V30.2273H129.432V27.3295H142.841C142.841 26.0985 142.595 25 142.102 24.0341C141.619 23.0682 140.928 22.3059 140.028 21.7472C139.138 21.1884 138.087 20.9091 136.875 20.9091C135.54 20.9091 134.384 21.2405 133.409 21.9034C132.443 22.5568 131.7 23.4091 131.179 24.4602C130.658 25.5114 130.398 26.6383 130.398 27.8409V29.7727C130.398 31.4205 130.682 32.8172 131.25 33.9631C131.828 35.0994 132.628 35.9659 133.651 36.5625C134.673 37.1496 135.862 37.4432 137.216 37.4432C138.097 37.4432 138.892 37.3201 139.602 37.0739C140.322 36.8182 140.942 36.4394 141.463 35.9375C141.984 35.4261 142.386 34.7917 142.67 34.0341L145.909 34.9432C145.568 36.0417 144.995 37.0076 144.19 37.8409C143.385 38.6648 142.391 39.3087 141.207 39.7727C140.024 40.2273 138.693 40.4545 137.216 40.4545ZM149.318 21.3068V18.1818H167.045V21.3068H159.886V40H156.534V21.3068H149.318ZM179.666 40.4545C177.696 40.4545 175.968 39.9858 174.482 39.0483C173.004 38.1108 171.849 36.7992 171.016 35.1136C170.192 33.428 169.78 31.4583 169.78 29.2045C169.78 26.9318 170.192 24.9479 171.016 23.2528C171.849 21.5578 173.004 20.2415 174.482 19.304C175.968 18.3665 177.696 17.8977 179.666 17.8977C181.636 17.8977 183.359 18.3665 184.837 19.304C186.323 20.2415 187.479 21.5578 188.303 23.2528C189.136 24.9479 189.553 26.9318 189.553 29.2045C189.553 31.4583 189.136 33.428 188.303 35.1136C187.479 36.7992 186.323 38.1108 184.837 39.0483C183.359 39.9858 181.636 40.4545 179.666 40.4545ZM179.666 37.4432C181.162 37.4432 182.393 37.0597 183.359 36.2926C184.325 35.5256 185.04 34.517 185.504 33.267C185.968 32.017 186.2 30.6629 186.2 29.2045C186.2 27.7462 185.968 26.3873 185.504 25.1278C185.04 23.8684 184.325 22.8504 183.359 22.0739C182.393 21.2973 181.162 20.9091 179.666 20.9091C178.17 20.9091 176.939 21.2973 175.973 22.0739C175.007 22.8504 174.292 23.8684 173.828 25.1278C173.364 26.3873 173.132 27.7462 173.132 29.2045C173.132 30.6629 173.364 32.017 173.828 33.267C174.292 34.517 175.007 35.5256 175.973 36.2926C176.939 37.0597 178.17 37.4432 179.666 37.4432ZM192.738 40V36.875H193.533C194.187 36.875 194.731 36.7472 195.167 36.4915C195.603 36.2263 195.953 35.767 196.218 35.1136C196.493 34.4508 196.701 33.5322 196.843 32.358C196.995 31.1742 197.103 29.6686 197.17 27.8409L197.567 18.1818H212.113V40H208.761V21.3068H200.749L200.408 29.0909C200.333 30.8807 200.172 32.4574 199.925 33.821C199.689 35.1752 199.324 36.3116 198.832 37.2301C198.349 38.1487 197.705 38.84 196.9 39.304C196.095 39.768 195.086 40 193.874 40H192.738ZM224.684 40.5114C223.301 40.5114 222.047 40.2509 220.92 39.7301C219.793 39.1998 218.898 38.4375 218.235 37.4432C217.572 36.4394 217.241 35.2273 217.241 33.8068C217.241 32.5568 217.487 31.5436 217.979 30.767C218.472 29.9811 219.13 29.3655 219.954 28.9205C220.778 28.4754 221.687 28.1439 222.681 27.9261C223.685 27.6989 224.693 27.5189 225.707 27.3864C227.032 27.2159 228.107 27.0881 228.931 27.0028C229.764 26.9081 230.371 26.7519 230.749 26.5341C231.138 26.3163 231.332 25.9375 231.332 25.3977V25.2841C231.332 23.8826 230.948 22.7936 230.181 22.017C229.424 21.2405 228.273 20.8523 226.729 20.8523C225.129 20.8523 223.874 21.2027 222.965 21.9034C222.056 22.6042 221.417 23.3523 221.048 24.1477L217.866 23.0114C218.434 21.6856 219.192 20.6534 220.138 19.9148C221.095 19.1667 222.137 18.6458 223.263 18.3523C224.4 18.0492 225.517 17.8977 226.616 17.8977C227.317 17.8977 228.121 17.983 229.031 18.1534C229.949 18.3144 230.835 18.6506 231.687 19.1619C232.549 19.6733 233.263 20.4451 233.832 21.4773C234.4 22.5095 234.684 23.892 234.684 25.625V40H231.332V37.0455H231.161C230.934 37.5189 230.555 38.0256 230.025 38.5653C229.495 39.1051 228.789 39.5644 227.908 39.9432C227.028 40.322 225.953 40.5114 224.684 40.5114ZM225.195 37.5C226.521 37.5 227.638 37.2396 228.548 36.7188C229.466 36.1979 230.157 35.5256 230.621 34.7017C231.095 33.8778 231.332 33.0114 231.332 32.1023V29.0341C231.19 29.2045 230.877 29.3608 230.394 29.5028C229.921 29.6354 229.371 29.7538 228.746 29.858C228.131 29.9527 227.53 30.0379 226.942 30.1136C226.365 30.1799 225.896 30.2367 225.536 30.2841C224.665 30.3977 223.851 30.5824 223.093 30.8381C222.345 31.0843 221.739 31.4583 221.275 31.9602C220.82 32.4527 220.593 33.125 220.593 33.9773C220.593 35.142 221.024 36.0227 221.886 36.6193C222.757 37.2064 223.86 37.5 225.195 37.5ZM240.803 40V18.1818H249.723C252.071 18.1818 253.937 18.7121 255.32 19.7727C256.702 20.8333 257.393 22.2348 257.393 23.9773C257.393 25.303 257 26.3305 256.214 27.0597C255.429 27.7794 254.42 28.267 253.189 28.5227C253.994 28.6364 254.775 28.9205 255.533 29.375C256.3 29.8295 256.934 30.4545 257.436 31.25C257.938 32.036 258.189 33.0019 258.189 34.1477C258.189 35.2652 257.905 36.2642 257.337 37.1449C256.768 38.0256 255.954 38.7216 254.893 39.233C253.833 39.7443 252.564 40 251.087 40H240.803ZM243.984 36.9318H251.087C252.242 36.9318 253.146 36.6572 253.8 36.108C254.453 35.5587 254.78 34.8106 254.78 33.8636C254.78 32.7367 254.453 31.8513 253.8 31.2074C253.146 30.554 252.242 30.2273 251.087 30.2273H243.984V36.9318ZM243.984 27.3295H249.723C250.623 27.3295 251.394 27.2064 252.038 26.9602C252.682 26.7045 253.175 26.3447 253.516 25.8807C253.866 25.4072 254.041 24.8485 254.041 24.2045C254.041 23.286 253.658 22.5663 252.891 22.0455C252.124 21.5152 251.068 21.25 249.723 21.25H243.984V27.3295ZM263.263 40V18.1818H266.616V27.6705H268.832L276.673 18.1818H280.991L272.184 28.6932L281.104 40H276.786L269.627 30.7955H266.616V40H263.263ZM291.168 40.5114C289.786 40.5114 288.531 40.2509 287.404 39.7301C286.277 39.1998 285.382 38.4375 284.719 37.4432C284.057 36.4394 283.725 35.2273 283.725 33.8068C283.725 32.5568 283.971 31.5436 284.464 30.767C284.956 29.9811 285.614 29.3655 286.438 28.9205C287.262 28.4754 288.171 28.1439 289.165 27.9261C290.169 27.6989 291.178 27.5189 292.191 27.3864C293.517 27.2159 294.592 27.0881 295.415 27.0028C296.249 26.9081 296.855 26.7519 297.234 26.5341C297.622 26.3163 297.816 25.9375 297.816 25.3977V25.2841C297.816 23.8826 297.433 22.7936 296.665 22.017C295.908 21.2405 294.757 20.8523 293.214 20.8523C291.613 20.8523 290.359 21.2027 289.45 21.9034C288.54 22.6042 287.901 23.3523 287.532 24.1477L284.35 23.0114C284.918 21.6856 285.676 20.6534 286.623 19.9148C287.579 19.1667 288.621 18.6458 289.748 18.3523C290.884 18.0492 292.002 17.8977 293.1 17.8977C293.801 17.8977 294.606 17.983 295.515 18.1534C296.433 18.3144 297.319 18.6506 298.171 19.1619C299.033 19.6733 299.748 20.4451 300.316 21.4773C300.884 22.5095 301.168 23.892 301.168 25.625V40H297.816V37.0455H297.646C297.418 37.5189 297.04 38.0256 296.509 38.5653C295.979 39.1051 295.273 39.5644 294.393 39.9432C293.512 40.322 292.437 40.5114 291.168 40.5114ZM291.68 37.5C293.005 37.5 294.123 37.2396 295.032 36.7188C295.951 36.1979 296.642 35.5256 297.106 34.7017C297.579 33.8778 297.816 33.0114 297.816 32.1023V29.0341C297.674 29.2045 297.362 29.3608 296.879 29.5028C296.405 29.6354 295.856 29.7538 295.231 29.858C294.615 29.9527 294.014 30.0379 293.427 30.1136C292.849 30.1799 292.38 30.2367 292.021 30.2841C291.149 30.3977 290.335 30.5824 289.577 30.8381C288.829 31.0843 288.223 31.4583 287.759 31.9602C287.305 32.4527 287.077 33.125 287.077 33.9773C287.077 35.142 287.508 36.0227 288.37 36.6193C289.241 37.2064 290.344 37.5 291.68 37.5Z" fill="white"/>
</svg>
