<svg width="305" height="50" viewBox="0 0 305 50" fill="none" xmlns="http://www.w3.org/2000/svg"><path d="M0 28.571c0 5.684 2.766 11.134 7.688 15.153C12.611 47.742 19.288 50 26.25 50c0-11.905-11.754-21.429-26.25-21.429zm26.25-17.857c1.934 0 3.788.627 5.156 1.744 1.367 1.116 2.136 2.63 2.136 4.209 0 1.578-.769 3.092-2.136 4.209-1.367 1.116-3.222 1.743-5.156 1.743-1.934 0-3.788-.627-5.156-1.743-1.367-1.117-2.136-2.63-2.136-4.21 0-1.578.769-3.092 2.136-4.208 1.367-1.117 3.222-1.744 5.156-1.744zM7.583 22.024c0 1.578.769 3.092 2.136 4.209 1.367 1.116 3.222 1.743 5.156 1.743 1.546 0 2.975-.405 4.083-1.047v.452c0 1.579.769 3.093 2.136 4.209 1.367 1.116 3.222 1.743 5.156 1.743 1.934 0 3.788-.627 5.156-1.743 1.367-1.116 2.136-2.63 2.136-4.209v-.452c1.108.642 2.537 1.047 4.083 1.047 1.934 0 3.788-.627 5.156-1.743 1.367-1.117 2.136-2.63 2.136-4.21 0-2.38-1.721-4.404-4.171-5.356 2.45-.953 4.17-3 4.17-5.358 0-1.578-.768-3.092-2.135-4.208-1.367-1.117-3.222-1.744-5.156-1.744-1.546 0-2.975.381-4.083 1.048v-.453c0-1.578-.769-3.092-2.136-4.209C30.039.627 28.184 0 26.25 0c-1.934 0-3.788.627-5.156 1.743-1.367 1.117-2.136 2.63-2.136 4.21v.452c-1.108-.667-2.537-1.048-4.083-1.048-1.934 0-3.789.627-5.156 1.744-1.367 1.116-2.136 2.63-2.136 4.208 0 2.358 1.721 4.405 4.171 5.358-2.45.952-4.17 2.976-4.17 5.357zM26.25 50c6.962 0 13.639-2.258 18.562-6.276 4.922-4.019 7.688-9.47 7.688-15.153-14.583 0-26.25 9.524-26.25 21.429zm74.489-13.352l-.398 10.227h-3.636V40h-2.046v-3.352h6.08zM76.023 40V10.91h3.352v25.85h15V10.91h3.352V40H76.023zm29.584 0V18.182h8.921c2.348 0 4.214.53 5.596 1.59 1.383 1.061 2.074 2.463 2.074 4.205 0 1.326-.393 2.354-1.179 3.083-.786.72-1.794 1.207-3.025 1.463a6.215 6.215 0 012.343.852 5.629 5.629 0 011.904 1.875c.502.786.753 1.752.753 2.898 0 1.117-.284 2.116-.853 2.997-.568.88-1.382 1.577-2.443 2.088-1.06.511-2.329.767-3.807.767h-10.284zm3.182-3.068h7.102c1.156 0 2.06-.275 2.713-.824.654-.55.981-1.297.981-2.244 0-1.127-.327-2.013-.981-2.657-.653-.653-1.557-.98-2.713-.98h-7.102v6.705zm0-9.603h5.739c.899 0 1.671-.123 2.315-.369.644-.256 1.136-.615 1.477-1.08.351-.473.526-1.031.526-1.675 0-.919-.384-1.639-1.151-2.16-.767-.53-1.823-.795-3.167-.795h-5.739v6.08zm28.427 13.126c-2.102 0-3.916-.465-5.44-1.392-1.516-.938-2.685-2.245-3.509-3.921-.814-1.686-1.222-3.646-1.222-5.88 0-2.236.408-4.205 1.222-5.91.824-1.714 1.97-3.049 3.438-4.005 1.477-.966 3.2-1.45 5.17-1.45 1.136 0 2.259.19 3.366.569 1.108.379 2.117.994 3.026 1.846.909.843 1.634 1.96 2.173 3.353.54 1.392.81 3.106.81 5.142v1.42h-16.818V27.33h13.409c0-1.23-.246-2.329-.739-3.295a5.564 5.564 0 00-2.074-2.287c-.89-.559-1.941-.838-3.153-.838-1.335 0-2.491.332-3.466.994a6.541 6.541 0 00-2.23 2.557 7.51 7.51 0 00-.781 3.38v1.933c0 1.648.284 3.044.852 4.19.578 1.136 1.378 2.003 2.401 2.6 1.022.587 2.211.88 3.565.88.881 0 1.676-.123 2.386-.37a5.108 5.108 0 001.861-1.136c.521-.51.923-1.145 1.207-1.903l3.239.91a7.181 7.181 0 01-1.719 2.897c-.805.824-1.799 1.468-2.983 1.932-1.183.454-2.514.681-3.991.681zm12.102-19.148v-3.125h17.727v3.125h-7.159V40h-3.352V21.307h-7.216zm30.348 19.148c-1.97 0-3.698-.47-5.184-1.407-1.478-.937-2.633-2.249-3.466-3.934-.824-1.686-1.236-3.656-1.236-5.91 0-2.272.412-4.256 1.236-5.951.833-1.695 1.988-3.012 3.466-3.949 1.486-.938 3.214-1.406 5.184-1.406 1.97 0 3.693.468 5.171 1.406 1.486.938 2.642 2.254 3.466 3.949.833 1.695 1.25 3.679 1.25 5.951 0 2.254-.417 4.224-1.25 5.91-.824 1.685-1.98 2.997-3.466 3.934-1.478.938-3.201 1.407-5.171 1.407zm0-3.012c1.496 0 2.727-.383 3.693-1.15.966-.767 1.681-1.776 2.145-3.026.464-1.25.696-2.604.696-4.063 0-1.458-.232-2.817-.696-4.076-.464-1.26-1.179-2.278-2.145-3.054-.966-.777-2.197-1.165-3.693-1.165s-2.727.388-3.693 1.165c-.966.776-1.681 1.794-2.145 3.054-.464 1.26-.696 2.618-.696 4.076 0 1.459.232 2.813.696 4.063.464 1.25 1.179 2.259 2.145 3.026.966.767 2.197 1.15 3.693 1.15zM192.738 40v-3.125h.795c.654 0 1.198-.128 1.634-.383.436-.266.786-.725 1.051-1.378.275-.663.483-1.582.625-2.756.152-1.184.26-2.69.327-4.517l.397-9.66h14.546V40h-3.352V21.307h-8.012l-.341 7.784c-.075 1.79-.236 3.366-.483 4.73-.236 1.354-.601 2.49-1.093 3.41-.483.918-1.127 1.609-1.932 2.073-.805.464-1.814.696-3.026.696h-1.136zm31.946.511c-1.383 0-2.637-.26-3.764-.78-1.127-.531-2.022-1.294-2.685-2.288-.663-1.004-.994-2.216-.994-3.636 0-1.25.246-2.263.738-3.04a5.218 5.218 0 011.975-1.846 10.38 10.38 0 012.727-.995 33.174 33.174 0 013.026-.54c1.325-.17 2.4-.298 3.224-.383.833-.095 1.44-.251 1.818-.469.389-.218.583-.596.583-1.136v-.114c0-1.401-.384-2.49-1.151-3.267-.757-.776-1.908-1.165-3.452-1.165-1.6 0-2.855.35-3.764 1.051-.909.701-1.548 1.45-1.917 2.245l-3.182-1.137c.568-1.325 1.326-2.358 2.272-3.096a8.528 8.528 0 013.125-1.563 12.978 12.978 0 013.353-.454c.701 0 1.505.085 2.415.255a7.73 7.73 0 012.656 1.009c.862.511 1.576 1.283 2.145 2.315.568 1.032.852 2.415.852 4.148V40h-3.352v-2.955h-.171c-.227.474-.606.98-1.136 1.52-.53.54-1.236 1-2.117 1.378-.88.379-1.955.568-3.224.568zm.511-3.011c1.326 0 2.443-.26 3.353-.781.918-.521 1.609-1.193 2.073-2.017.474-.824.711-1.69.711-2.6v-3.068c-.142.17-.455.327-.938.469-.473.132-1.023.25-1.648.355a73.68 73.68 0 01-1.804.256c-.577.066-1.046.123-1.406.17-.871.114-1.685.298-2.443.554-.748.246-1.354.62-1.818 1.122-.455.493-.682 1.165-.682 2.017 0 1.165.431 2.046 1.293 2.642.871.587 1.974.881 3.309.881zm15.608 2.5V18.182h8.92c2.348 0 4.214.53 5.597 1.59 1.382 1.061 2.073 2.463 2.073 4.205 0 1.326-.393 2.354-1.179 3.083-.785.72-1.794 1.207-3.025 1.463a6.225 6.225 0 012.344.852 5.626 5.626 0 011.903 1.875c.502.786.753 1.752.753 2.898 0 1.117-.284 2.116-.852 2.997-.569.88-1.383 1.577-2.444 2.088-1.06.511-2.329.767-3.806.767h-10.284zm3.181-3.068h7.103c1.155 0 2.059-.275 2.713-.824.653-.55.98-1.297.98-2.244 0-1.127-.327-2.013-.98-2.657-.654-.653-1.558-.98-2.713-.98h-7.103v6.705zm0-9.603h5.739c.9 0 1.671-.123 2.315-.369.644-.256 1.137-.615 1.478-1.08.35-.473.525-1.031.525-1.675 0-.919-.383-1.639-1.15-2.16-.767-.53-1.823-.795-3.168-.795h-5.739v6.08zM263.263 40V18.182h3.353v9.489h2.216l7.841-9.49h4.318l-8.807 10.512L281.104 40h-4.318l-7.159-9.204h-3.011V40h-3.353zm27.905.511c-1.382 0-2.637-.26-3.764-.78-1.127-.531-2.022-1.294-2.685-2.288-.662-1.004-.994-2.216-.994-3.636 0-1.25.246-2.263.739-3.04a5.208 5.208 0 011.974-1.846 10.38 10.38 0 012.727-.995 33.235 33.235 0 013.026-.54 137.65 137.65 0 013.224-.383c.834-.095 1.44-.251 1.819-.469.388-.218.582-.596.582-1.136v-.114c0-1.401-.383-2.49-1.151-3.267-.757-.776-1.908-1.165-3.451-1.165-1.601 0-2.855.35-3.764 1.051-.91.701-1.549 1.45-1.918 2.245l-3.182-1.137c.568-1.325 1.326-2.358 2.273-3.096a8.513 8.513 0 013.125-1.563 12.97 12.97 0 013.352-.454c.701 0 1.506.085 2.415.255a7.73 7.73 0 012.656 1.009c.862.511 1.577 1.283 2.145 2.315.568 1.032.852 2.415.852 4.148V40h-3.352v-2.955h-.17c-.228.474-.606.98-1.137 1.52-.53.54-1.236 1-2.116 1.378-.881.379-1.956.568-3.225.568zm.512-3.011c1.325 0 2.443-.26 3.352-.781.919-.521 1.61-1.193 2.074-2.017.473-.824.71-1.69.71-2.6v-3.068c-.142.17-.454.327-.937.469a15.85 15.85 0 01-1.648.355c-.616.095-1.217.18-1.804.256-.578.066-1.047.123-1.406.17-.872.114-1.686.298-2.444.554-.748.246-1.354.62-1.818 1.122-.454.493-.682 1.165-.682 2.017 0 1.165.431 2.046 1.293 2.642.871.587 1.974.881 3.31.881z" fill="#fff"/></svg>